<?xml version="1.0" standalone="no"?>
<!DOCTYPE svg PUBLIC "-//W3C//DTD SVG 20010904//EN"
 "http://www.w3.org/TR/2001/REC-SVG-20010904/DTD/svg10.dtd">
<svg version="1.0" xmlns="http://www.w3.org/2000/svg"
 width="341.000000pt" height="341.000000pt" viewBox="0 0 341.000000 341.000000"
 preserveAspectRatio="xMidYMid meet">
<metadata>
Created by potrace 1.14, written by Peter Selinger 2001-2017
</metadata>
<g transform="translate(0.000000,341.000000) scale(0.100000,-0.100000)"
fill="#000000" stroke="none">
<path d="M1559 3406 c-2 -2 -31 -6 -64 -10 -56 -6 -74 -9 -132 -20 -58 -12
-219 -58 -247 -71 -17 -8 -53 -23 -81 -33 -54 -21 -151 -71 -200 -102 -16 -11
-37 -23 -45 -27 -20 -9 -154 -107 -192 -141 -215 -188 -377 -417 -476 -667
-36 -92 -87 -269 -97 -335 -4 -25 -9 -58 -11 -75 -10 -60 -12 -342 -3 -415 69
-577 425 -1081 942 -1334 166 -81 361 -141 534 -163 77 -10 363 -10 438 0 503
67 963 365 1227 794 108 175 202 410 223 559 3 21 8 44 10 51 12 36 20 147 19
288 0 186 -8 261 -45 410 -117 471 -436 878 -863 1099 -162 85 -366 153 -511
172 -27 3 -54 9 -59 12 -10 6 -361 14 -367 8z"/>
</g>
</svg>
